PathFileType	4	(X/Y/Z)	c:/Users/goper/Files/vsCode/490R/osim_files/A02/A02_Fast_05.trc
DataRate	CameraRate	NumFrames	NumMarkers	Units                	OrigDataRate	OrigDataStartFrame	OrigNumFrames
250.00	250.00	4	36	mm	250.0	1552	2483
                Frame#	Time	Mobility_markerset:LPSIS			Mobility_markerset:LASIS			Mobility_markerset:LTH1			Mobility_markerset:LTH2			Mobility_markerset:LTH3			Mobility_markerset:LTH4			Mobility_markerset:LLFE			Mobility_markerset:LMFE			Mobility_markerset:LSH1			Mobility_markerset:LSH2			Mobility_markerset:LSH3			Mobility_markerset:LSH4			Mobility_markerset:LLMAL			Mobility_markerset:LMMAL			Mobility_markerset:LCAL			Mobility_markerset:LMTP5			Mobility_markerset:LTOE			Mobility_markerset:LMTP1			Mobility_markerset:RPSIS			Mobility_markerset:RASIS			Mobility_markerset:RTH1			Mobility_markerset:RTH2			Mobility_markerset:RTH3			Mobility_markerset:RTH4			Mobility_markerset:RLFE			Mobility_markerset:RMFE			Mobility_markerset:RSH1			Mobility_markerset:RSH2			Mobility_markerset:RSH3			Mobility_markerset:RSH4			Mobility_markerset:RLMAL			Mobility_markerset:RMMAL			Mobility_markerset:RCAL			Mobility_markerset:RMTP1			Mobility_markerset:RTOE			Mobility_markerset:RMTP5		
		X1	Y1	Z1	X2	Y2	Z2	X3	Y3	Z3	X4	Y4	Z4	X5	Y5	Z5	X6	Y6	Z6	X7	Y7	Z7	X8	Y8	Z8	X9	Y9	Z9	X10	Y10	Z10	X11	Y11	Z11	X12	Y12	Z12	X13	Y13	Z13	X14	Y14	Z14	X15	Y15	Z15	X16	Y16	Z16	X17	Y17	Z17	X18	Y18	Z18	X19	Y19	Z19	X20	Y20	Z20	X21	Y21	Z21	X22	Y22	Z22	X23	Y23	Z23	X24	Y24	Z24	X25	Y25	Z25	X26	Y26	Z26	X27	Y27	Z27	X28	Y28	Z28	X29	Y29	Z29	X30	Y30	Z30	X31	Y31	Z31	X32	Y32	Z32	X33	Y33	Z33	X34	Y34	Z34	X35	Y35	Z35	X36	Y36	Z36

1552	6.20400	-2347.44019	934.61670	343.09348	-2486.39307	893.25214	435.81094	-2333.91406	671.62341	455.34790	0.00000	0.00000	0.00000	-2390.30981	660.26581	479.06607	0.00000	0.00000	0.00000	-2316.69165	453.30240	435.70605	-2341.17920	416.24277	324.13016	-2215.71533	429.00635	421.84540	-2185.81934	395.57330	426.07806	-2257.50903	388.47824	438.49402	-2224.88208	360.41638	442.69360	-2061.60986	174.46828	398.77383	-2082.47974	164.89986	318.67908	-2005.63660	205.64122	347.61447	-2071.06030	60.77604	421.46997	-2123.09302	44.47449	357.57953	-2083.51514	47.22144	306.90381	-2355.37671	944.39874	241.63287	-2512.50342	920.63971	188.10660	-2537.16650	596.08124	159.89357	-2557.28345	556.80701	160.06650	-2592.51147	618.29736	160.21619	-2604.76318	576.54401	158.09435	-2609.03906	456.82758	148.65160	-2630.56006	464.91080	281.83667	-2655.30688	276.61420	168.34996	-2674.21191	234.75899	178.13138	-2711.13379	295.85007	163.87700	-2723.06885	250.41029	170.72632	0.00000	0.00000	0.00000	-2737.33740	96.90418	264.31757	-2680.62817	62.59296	222.43250	-2865.00757	88.84084	249.82368	-2881.96143	105.25956	214.34401	-2855.23682	82.90264	158.46388
1553	6.20800	-2353.65918	935.66858	342.74072	-2492.65356	894.17084	435.37704	-2341.07349	671.93237	455.30682	0.00000	0.00000	0.00000	-2397.26587	660.97296	479.06519	-2385.01416	617.05890	470.77737	-2324.92578	453.71252	436.62463	-2350.30664	415.99936	325.20755	-2223.70532	430.02444	421.87170	-2193.45679	397.01373	426.10977	-2265.25659	389.45105	439.49539	-2230.68237	360.70340	442.40475	-2067.51538	177.14751	398.84015	-2088.79492	166.89923	319.28375	-2013.85437	210.41841	347.79422	-2072.89722	62.59370	421.37128	-2124.56543	44.37917	357.79611	-2085.89917	49.15374	306.71466	-2362.23511	945.33557	241.71974	-2519.24487	921.64429	187.88077	-2542.07373	597.42035	159.45177	-2562.09155	557.78265	159.63554	-2597.76001	619.01410	159.69302	-2609.40771	577.09528	157.63519	-2612.96240	457.43951	148.22009	-2634.56323	465.44525	281.38995	-2657.70312	276.78735	168.14801	0.00000	0.00000	0.00000	-2713.67261	295.59073	163.61618	-2725.17969	250.05847	170.48123	0.00000	0.00000	0.00000	-2738.25854	96.56750	264.15475	-2680.97119	62.93670	222.32144	-2865.63306	87.27974	249.61870	-2883.52051	103.87788	213.46976	-2856.01074	81.38639	158.34364
1554	6.21200	-2360.23193	936.48077	342.54312	-2498.88281	895.18481	434.99646	-2348.08618	672.15265	455.07562	0.00000	0.00000	0.00000	-2404.08032	661.57092	479.16556	-2392.20850	617.63324	471.01642	-2333.23828	453.67050	437.21396	-2359.28540	415.42319	326.23938	-2232.03149	431.12943	422.05792	-2201.71313	398.31946	426.21683	-2272.61938	389.98093	440.06543	-2237.98779	361.77271	442.76013	-2073.23291	179.81357	399.45255	-2094.82300	169.13232	319.78479	-2022.40149	215.29213	347.93301	-2074.68433	64.42181	420.65616	-2126.13599	44.37690	357.96768	-2088.48242	51.30985	306.44592	0.00000	0.00000	0.00000	-2526.02051	922.75446	187.61597	-2547.02686	598.72302	159.06091	-2566.68604	558.87030	159.29179	-2603.00000	619.79248	159.28555	-2614.15601	577.72467	157.21112	-2616.49097	457.86453	148.23389	-2638.57544	465.98734	281.11252	-2660.04272	277.10153	167.92499	0.00000	0.00000	0.00000	-2716.15088	295.38007	163.37971	-2727.03687	249.71159	170.37007	0.00000	0.00000	0.00000	-2739.03979	96.30530	264.01657	-2681.55859	63.02557	222.21973	-2866.47485	85.89254	249.53201	-2884.23657	102.42941	213.12143	-2856.83057	79.87873	158.21147
1555	6.21600	-2366.45410	937.40265	342.35211	-2505.13159	896.24097	434.58301	-2355.02100	672.33923	454.81128	0.00000	0.00000	0.00000	-2411.13037	662.20392	479.17914	-2399.36401	618.17712	471.07773	-2342.01880	453.75116	437.95532	-2368.53052	414.78430	327.35312	-2240.66309	432.27521	422.28592	-2209.88770	399.71576	426.29013	-2280.69531	390.85944	440.89154	-2245.56006	362.89093	443.36575	-2079.51514	182.46361	399.94830	-2102.32446	170.85634	320.77402	-2031.28467	220.07986	348.18704	-2076.91162	66.64325	420.61670	-2127.80713	44.52788	358.21313	-2091.39429	53.80758	306.22455	0.00000	0.00000	0.00000	-2532.50684	923.85052	187.51367	-2552.25293	599.93274	158.71844	-2571.32617	560.02673	158.96230	-2608.09277	620.55670	158.91132	-2619.35083	578.59454	156.81966	-2620.19287	458.52130	147.93649	-2642.65039	466.82861	280.73471	-2662.19141	277.51776	167.80814	0.00000	0.00000	0.00000	-2718.52539	295.21860	163.20430	-2729.28516	249.60223	170.08911	-2726.66016	86.83237	174.11577	-2739.62402	95.98717	263.83060	-2681.80542	63.55419	222.20140	-2867.23901	84.70570	249.47110	-2886.33496	102.36405	214.25272	-2856.94873	78.66697	158.08888
